HIERARCHY
ROOT hip
{
	OFFSET 0.000000 0.000000 0.000000
	CHANNELS 6 Xposition Yposition Zposition Xrotation Zrotation Yrotation 
	JOINT abdomen
	{
		OFFSET 0.000000 3.422050 0.000000
		CHANNELS 3 Xrotation Zrotation Yrotation 
		JOINT chest
		{
			OFFSET 0.000000 8.486693 -0.684411
			CHANNELS 3 Xrotation Zrotation Yrotation 
			JOINT neck
			{
				OFFSET 0.000000 10.266162 -0.273764
				CHANNELS 3 Xrotation Zrotation Yrotation 
				JOINT head
				{
					OFFSET 0.000000 3.148285 0.000000
					CHANNELS 3 Xrotation Zrotation Yrotation 
					End Site
					{
						OFFSET 0.000000 3.148289 0.000000
					}
				}
			}
			JOINT lCollar
			{
				OFFSET 3.422053 6.707223 -0.821293
				CHANNELS 3 Yrotation Zrotation Xrotation 
				JOINT lShldr
				{
					OFFSET 3.285171 0.000000 0.000000
					CHANNELS 3 Zrotation Yrotation Xrotation 
					JOINT lForeArm
					{
						OFFSET 10.129278 0.000000 0.000000
						CHANNELS 3 Yrotation Zrotation Xrotation 
						JOINT lHand
						{
							OFFSET 8.486692 0.000000 0.000000
							CHANNELS 3 Zrotation Yrotation Xrotation 
							End Site
							{
								OFFSET 4.106464 0.000000 0.000000
							}
						}
					}
				}
			}
			JOINT rCollar
			{
				OFFSET -3.558935 6.707223 -0.821293
				CHANNELS 3 Yrotation Zrotation Xrotation 
				JOINT rShldr
				{
					OFFSET -3.148289 0.000000 0.000000
					CHANNELS 3 Zrotation Yrotation Xrotation 
					JOINT rForeArm
					{
						OFFSET -10.266159 0.000000 0.000000
						CHANNELS 3 Yrotation Zrotation Xrotation 
						JOINT rHand
						{
							OFFSET -8.349810 0.000000 0.000000
							CHANNELS 3 Zrotation Yrotation Xrotation 
							End Site
							{
								OFFSET -4.106464 0.000000 0.000000
							}
						}
					}
				}
			}
		}
	}
	JOINT lThigh
	{
		OFFSET 5.338403 -1.642589 1.368821
		CHANNELS 3 Xrotation Zrotation Yrotation 
		JOINT lShin
		{
			OFFSET -2.053232 -20.121670 0.000000
			CHANNELS 3 Xrotation Zrotation Yrotation 
			JOINT lFoot
			{
				OFFSET 0.000000 -19.300380 -1.231939
				CHANNELS 3 Xrotation Yrotation Zrotation 
				End Site
				{
					OFFSET 0.000000 -2.463878 4.653993
				}
			}
		}
	}
	JOINT rThigh
	{
		OFFSET -5.338403 -1.642589 1.368821
		CHANNELS 3 Xrotation Zrotation Yrotation 
		JOINT rShin
		{
			OFFSET 2.053232 -20.121670 0.000000
			CHANNELS 3 Xrotation Zrotation Yrotation 
			JOINT rFoot
			{
				OFFSET 0.000000 -19.300380 -1.231939
				CHANNELS 3 Xrotation Yrotation Zrotation 
				End Site
				{
					OFFSET 0.000000 -2.463878 4.653993
				}
			}
		}
	}
}
MOTION
Frames: 20
Frame Time: 0.033264
-14.000420 3.996296 0.000000 -90.001884 0.000000 0.000000 23.363993 -0.431578 -0.183871 18.726925 -1.149271 -0.800935 25.413292 -0.000048 5.997184 -15.510799 0.000000 0.000000 8.941485 0.877278 0.161166 -46.955746 31.794146 16.626724 -98.336571 9.830343 30.283400 -16.467306 -31.395241 11.940426 -8.610972 -0.665439 0.337423 76.742165 -30.292879 0.734295 74.998512 -0.001709 34.000713 6.998461 -0.202121 23.599018 -0.777024 19.735947 0.502013 10.536926 -2.173503 -0.138981 41.144115 -3.930920 2.415765 -26.782558 -16.954065 -13.807646 64.344391 2.291625 0.117345 18.679640 -1.731586 -5.014312 
-14.000420 3.996296 0.000000 -90.001877 0.000000 0.000000 23.363993 -0.431578 -0.183871 18.726925 -1.149271 -0.800935 26.888477 0.000065 5.997118 -15.346575 0.000000 0.000000 8.941485 0.877278 0.161166 -46.955746 31.794146 16.626724 -97.899956 10.058279 30.663517 -16.467306 -31.395241 11.940426 -8.610972 -0.665439 0.337423 76.742165 -30.292879 0.734295 74.998512 -0.001709 34.000713 6.998461 -0.202121 23.599018 -0.777024 19.735947 0.502013 10.536926 -2.173503 -0.138981 41.144115 -3.930920 2.415765 -26.787796 -16.907846 -13.716573 64.344391 2.291625 0.117345 18.679640 -1.731586 -5.014312 
-14.000420 3.996296 0.000000 -90.001877 0.000000 0.000000 23.363993 -0.431578 -0.183871 18.726925 -1.149271 -0.800935 28.361223 0.000179 5.997056 -15.182323 0.000000 0.000000 8.941485 0.877278 0.161166 -46.955746 31.794146 16.626724 -97.464607 10.289048 31.042128 -16.467306 -31.395241 11.940426 -8.610972 -0.665439 0.337423 76.742165 -30.292879 0.734295 74.998512 -0.001709 34.000713 6.998461 -0.202121 23.599018 -0.777024 19.735947 0.502013 10.536926 -2.173503 -0.138981 41.144115 -3.930920 2.415765 -26.792950 -16.861612 -13.625516 64.344391 2.291625 0.117345 18.679640 -1.731586 -5.014312 
-14.000420 3.996296 0.000000 -90.001877 0.000000 0.000000 23.363993 -0.431578 -0.183871 18.726925 -1.149271 -0.800935 29.831036 0.000294 5.996997 -15.018053 0.000000 0.000000 8.941485 0.877278 0.161166 -46.955746 31.794146 16.626724 -97.030548 10.522617 31.419188 -16.467306 -31.395241 11.940426 -8.610972 -0.665439 0.337423 76.742165 -30.292879 0.734295 74.998512 -0.001709 34.000713 6.998461 -0.202121 23.599018 -0.777024 19.735947 0.502013 10.536926 -2.173503 -0.138981 41.144115 -3.930920 2.415765 -26.798029 -16.815376 -13.534489 64.344391 2.291625 0.117345 18.679640 -1.731586 -5.014312 
-14.000420 3.996296 0.000000 -90.001877 0.000000 0.000000 23.363993 -0.431578 -0.183871 18.726925 -1.149271 -0.800935 31.297447 0.000410 5.996942 -14.853761 0.000000 0.000000 8.941485 0.877278 0.161166 -46.955746 31.794146 16.626724 -96.597794 10.758942 31.794661 -16.467306 -31.395241 11.940426 -8.610972 -0.665439 0.337423 76.742165 -30.292879 0.734295 74.998512 -0.001709 34.000713 6.998461 -0.202121 23.599018 -0.777024 19.735947 0.502013 10.536926 -2.173503 -0.138981 41.144115 -3.930920 2.415765 -26.803034 -16.769127 -13.443479 64.344391 2.291625 0.117345 18.679640 -1.731586 -5.014312 
-14.000420 3.996296 0.000000 -90.001877 0.000000 0.000000 23.363993 -0.431578 -0.183871 18.726925 -1.149271 -0.800935 32.759991 0.000527 5.996889 -14.689445 0.000000 0.000000 8.941485 0.877278 0.161166 -46.955746 31.794146 16.626724 -96.166389 10.997987 32.168518 -16.467306 -31.395241 11.940426 -8.610972 -0.665439 0.337423 76.742165 -30.292879 0.734295 74.998512 -0.001709 34.000713 6.998461 -0.202121 23.599018 -0.777024 19.735947 0.502013 10.536926 -2.173503 -0.138981 41.144115 -3.930920 2.415765 -26.807959 -16.722870 -13.352496 64.344391 2.291625 0.117345 18.679640 -1.731586 -5.014312 
-14.000420 3.996296 0.000000 -90.001877 0.000000 0.000000 23.363993 -0.431578 -0.183871 18.726925 -1.149271 -0.800935 34.218208 0.000646 5.996838 -14.525116 0.000000 0.000000 8.941485 0.877278 0.161166 -46.955746 31.794146 16.626724 -95.736343 11.239711 32.540718 -16.467306 -31.395241 11.940426 -8.610972 -0.665439 0.337423 76.742165 -30.292879 0.734295 74.998512 -0.001709 34.000713 6.998461 -0.202121 23.599018 -0.777024 19.735947 0.502013 10.536926 -2.173503 -0.138981 41.144115 -3.930920 2.415765 -26.812809 -16.676603 -13.261535 64.344391 2.291625 0.117345 18.679640 -1.731586 -5.014312 
-14.000420 3.996296 0.000000 -90.001877 0.000000 0.000000 23.363993 -0.431578 -0.183871 18.726925 -1.149271 -0.800935 35.671654 0.000765 5.996793 -14.360764 0.000000 0.000000 8.941485 0.877278 0.161166 -46.955746 31.794146 16.626724 -95.307724 11.484074 32.911247 -16.467306 -31.395241 11.940426 -8.610972 -0.665439 0.337423 76.742165 -30.292879 0.734295 74.998512 -0.001709 34.000713 6.998461 -0.202121 23.599018 -0.777024 19.735947 0.502013 10.536926 -2.173503 -0.138981 41.144115 -3.930920 2.415765 -26.817579 -16.630323 -13.170592 64.344391 2.291625 0.117345 18.679640 -1.731586 -5.014312 
-14.000420 3.996296 0.000000 -90.001877 0.000000 0.000000 23.363993 -0.431578 -0.183871 18.726925 -1.149271 -0.800935 37.119873 0.000885 5.996750 -14.196398 0.000000 0.000000 8.941485 0.877278 0.161166 -46.955746 31.794146 16.626724 -94.880531 11.731041 33.280064 -16.467306 -31.395241 11.940426 -8.610972 -0.665439 0.337423 76.742165 -30.292879 0.734295 74.998512 -0.001709 34.000713 6.998461 -0.202121 23.599018 -0.777024 19.735947 0.502013 10.536926 -2.173503 -0.138981 41.144115 -3.930920 2.415765 -26.822273 -16.584040 -13.079677 64.344391 2.291625 0.117345 18.679640 -1.731586 -5.014312 
-14.000420 3.996296 0.000000 -90.001877 0.000000 0.000000 23.363993 -0.431578 -0.183871 18.726925 -1.149271 -0.800935 38.562450 0.001005 5.996711 -14.032009 0.000000 0.000000 8.941485 0.877278 0.161166 -46.955746 31.794146 16.626724 -94.454803 11.980556 33.647133 -16.467306 -31.395241 11.940426 -8.610972 -0.665439 0.337423 76.742165 -30.292879 0.734295 74.998512 -0.001709 34.000713 6.998461 -0.202121 23.599018 -0.777024 19.735947 0.502013 10.536926 -2.173503 -0.138981 41.144115 -3.930920 2.415765 -26.826889 -16.537748 -12.988783 64.344391 2.291625 0.117345 18.679640 -1.731586 -5.014312 
-14.000420 3.996296 0.000000 -90.001877 0.000000 0.000000 23.363993 -0.431578 -0.183871 18.726925 -1.149271 -0.800935 39.998936 0.001126 5.996673 -13.867605 0.000000 0.000000 8.941485 0.877278 0.161166 -46.955746 31.794146 16.626724 -94.030548 12.232588 34.012428 -16.467306 -31.395241 11.940426 -8.610972 -0.665439 0.337423 76.742165 -30.292879 0.734295 74.998512 -0.001709 34.000713 6.998461 -0.202121 23.599018 -0.777024 19.735947 0.502013 10.536926 -2.173503 -0.138981 41.144115 -3.930920 2.415765 -26.831427 -16.491444 -12.897910 64.344391 2.291625 0.117345 18.679640 -1.731586 -5.014312 
-14.000420 3.996296 0.000000 -90.001877 0.000000 0.000000 23.363993 -0.431578 -0.183871 18.726925 -1.149271 -0.800935 39.842937 0.009231 5.954627 -13.703191 0.000000 0.000000 8.941485 0.877278 0.161166 -46.955746 31.794146 16.626724 -93.607803 12.487088 34.375927 -16.467306 -31.395241 11.940426 -8.610972 -0.665439 0.337423 76.742165 -30.292879 0.734295 74.998512 -0.001709 34.000713 6.998461 -0.202121 23.599018 -0.777024 19.735947 0.502013 10.536926 -2.173503 -0.138981 41.144119 -3.930921 2.415765 -26.835886 -16.445131 -12.807061 64.344391 2.291625 0.117345 18.679640 -1.731586 -5.014312 
-14.000420 3.996296 0.000000 -90.001877 0.000000 0.000000 23.363993 -0.431578 -0.183871 18.726925 -1.149271 -0.800935 39.686901 0.017225 5.912549 -13.538755 0.000000 0.000000 8.941485 0.877278 0.161166 -46.955746 31.794146 16.626724 -93.186607 12.744015 34.737598 -16.467306 -31.395241 11.940426 -8.610972 -0.665439 0.337423 76.742165 -30.292879 0.734295 74.998512 -0.001709 34.000713 6.998461 -0.202121 23.599018 -0.777024 19.735947 0.502013 10.536926 -2.173503 -0.138981 41.144115 -3.930920 2.415765 -26.840269 -16.398815 -12.716234 64.344391 2.291625 0.117345 18.679640 -1.731586 -5.014312 
-14.000420 3.996296 0.000000 -90.001877 0.000000 0.000000 23.363993 -0.431578 -0.183871 18.726925 -1.149271 -0.800935 39.530807 0.025105 5.870436 -13.374307 0.000000 0.000000 8.941485 0.877278 0.161166 -46.955746 31.794146 16.626724 -92.766975 13.003320 35.097416 -16.467306 -31.395241 11.940426 -8.610972 -0.665439 0.337423 76.742165 -30.292879 0.734295 74.998512 -0.001709 34.000713 6.998461 -0.202121 23.599018 -0.777024 19.735947 0.502013 10.536926 -2.173503 -0.138981 41.144119 -3.930921 2.415765 -26.844576 -16.352488 -12.625429 64.344391 2.291625 0.117345 18.679640 -1.731586 -5.014312 
-14.000420 3.996296 0.000000 -90.001877 0.000000 0.000000 23.363993 -0.431578 -0.183871 18.726925 -1.149271 -0.800935 39.374668 0.032873 5.828291 -13.209846 0.000000 0.000000 8.941485 0.877278 0.161166 -46.955746 31.794146 16.626724 -92.348930 13.264963 35.455349 -16.467306 -31.395241 11.940426 -8.610972 -0.665439 0.337423 76.742165 -30.292879 0.734295 74.998512 -0.001709 34.000713 6.998461 -0.202121 23.599018 -0.777024 19.735947 0.502013 10.536926 -2.173503 -0.138981 41.144115 -3.930920 2.415765 -26.848801 -16.306150 -12.534650 64.344391 2.291625 0.117345 18.679640 -1.731586 -5.014312 
-14.000420 3.996296 0.000000 -90.001877 0.000000 0.000000 23.363993 -0.431578 -0.183871 18.726925 -1.149271 -0.800935 39.218475 0.040528 5.786113 -13.045370 0.000000 0.000000 8.941485 0.877278 0.161166 -46.955746 31.794146 16.626724 -91.932487 13.528905 35.811386 -16.467306 -31.395241 11.940426 -8.610972 -0.665439 0.337423 76.742165 -30.292879 0.734295 74.998512 -0.001709 34.000713 6.998461 -0.202121 23.599018 -0.777024 19.735947 0.502013 10.536926 -2.173503 -0.138981 41.144119 -3.930921 2.415765 -26.852955 -16.259809 -12.443892 64.344391 2.291625 0.117345 18.679640 -1.731586 -5.014312 
-14.000420 3.996296 0.000000 -90.001877 0.000000 0.000000 23.363993 -0.431578 -0.183871 18.726925 -1.149271 -0.800935 39.062237 0.048071 5.743904 -12.880884 0.000000 0.000000 8.941485 0.877278 0.161166 -46.955746 31.794146 16.626724 -91.517685 13.795085 36.165485 -16.467306 -31.395241 11.940426 -8.610972 -0.665439 0.337423 76.742165 -30.292879 0.734295 74.998512 -0.001709 34.000713 6.998461 -0.202121 23.599018 -0.777024 19.735947 0.502013 10.536926 -2.173503 -0.138981 41.144115 -3.930920 2.415765 -26.857023 -16.213459 -12.353153 64.344391 2.291625 0.117345 18.679640 -1.731586 -5.014312 
-14.000420 3.996296 0.000000 -90.001877 0.000000 0.000000 23.363993 -0.431578 -0.183871 18.726925 -1.149271 -0.800935 38.905964 0.055500 5.701664 -12.716381 0.000000 0.000000 8.941485 0.877278 0.161166 -46.955746 31.794146 16.626724 -91.104538 14.063473 36.517647 -16.467306 -31.395241 11.940426 -8.610972 -0.665439 0.337423 76.742165 -30.292879 0.734295 74.998512 -0.001709 34.000713 6.998461 -0.202121 23.599018 -0.777024 19.735947 0.502013 10.536926 -2.173503 -0.138981 41.144115 -3.930920 2.415765 -26.861023 -16.167107 -12.262444 64.344391 2.291625 0.117345 18.679640 -1.731586 -5.014312 
-14.000420 3.996296 0.000000 -90.001877 0.000000 0.000000 23.363993 -0.431578 -0.183871 18.726925 -1.149271 -0.800935 38.749626 0.062815 5.659391 -12.551872 0.000000 0.000000 8.941485 0.877278 0.161166 -46.955746 31.794146 16.626724 -90.693077 14.334007 36.867832 -16.467306 -31.395241 11.940426 -8.610972 -0.665439 0.337423 76.742165 -30.292879 0.734295 74.998512 -0.001709 34.000713 6.998461 -0.202121 23.599018 -0.777024 19.735947 0.502013 10.536926 -2.173503 -0.138981 41.144115 -3.930920 2.415765 -26.864941 -16.120741 -12.171752 64.344391 2.291625 0.117345 18.679640 -1.731586 -5.014312 
-14.000420 3.996296 0.000000 -90.001877 0.000000 0.000000 23.363993 -0.431578 -0.183871 18.726925 -1.149271 -0.800935 38.593262 0.070017 5.617090 -12.387352 0.000000 0.000000 8.941485 0.877278 0.161166 -46.955746 31.794146 16.626724 -90.283287 14.606650 37.216015 -16.467306 -31.395241 11.940426 -8.610972 -0.665439 0.337423 76.742165 -30.292879 0.734295 74.998512 -0.001709 34.000713 6.998461 -0.202121 23.599018 -0.777024 19.735947 0.502013 10.536926 -2.173503 -0.138981 41.144115 -3.930920 2.415765 -26.868782 -16.074371 -12.081087 64.344391 2.291625 0.117345 18.679640 -1.731586 -5.014312 
